<?xml version="1.0" encoding="UTF-8"?>
<svg width="19px" height="20px" viewBox="0 0 19 20" version="1.1" xmlns="http://www.w3.org/2000/svg" xmlns:xlink="http://www.w3.org/1999/xlink">
    <!-- Generator: Sketch 40.3 (33839) - http://www.bohemiancoding.com/sketch -->
    <title>trophy</title>
    <desc>Created with Sketch.</desc>
    <defs></defs>
    <g id="Welcome" stroke="none" stroke-width="1" fill="none" fill-rule="evenodd">
        <g id="Desktop" transform="translate(-214.000000, -517.000000)">
            <g id="trophy" transform="translate(214.000000, 517.000000)">
                <rect id="Rectangle-path" x="0" y="0" width="20" height="20"></rect>
                <path d="M10.944,14.223 C10.944,12.786 12.033,11.992 13.809,10.815 C15.982,9.376 18.686,7.584 18.686,3.332 C18.686,2.949 18.372,2.639 17.985,2.639 L14.589,2.639 C14.109,1.752 12.679,0.804 9.775,0.804 C6.872,0.804 5.442,1.752 4.962,2.639 L1.566,2.639 C1.179,2.639 0.865,2.95 0.865,3.332 C0.865,7.584 3.57,9.376 5.742,10.815 C7.519,11.992 8.607,12.786 8.607,14.223 L8.607,15.52 C6.741,15.728 5.37,16.418 5.37,17.239 C5.37,18.223 7.343,19.021 9.775,19.021 C12.208,19.021 14.181,18.223 14.181,17.239 C14.181,16.419 12.81,15.728 10.944,15.52 L10.944,14.223 L10.944,14.223 Z M13.693,9.219 C14.255,8.03 14.699,6.42 14.771,4.025 L17.254,4.025 C17.019,6.698 15.413,8.048 13.693,9.219 L13.693,9.219 Z M9.775,2.017 C12.48,2.016 13.537,3.122 13.536,3.532 C13.536,3.945 12.481,5.049 9.775,5.052 C7.07,5.05 6.015,3.945 6.015,3.532 C6.014,3.122 7.07,2.016 9.775,2.017 L9.775,2.017 Z M2.296,4.025 L4.78,4.025 C4.852,6.42 5.296,8.03 5.858,9.219 C4.139,8.048 2.532,6.698 2.296,4.025 L2.296,4.025 Z" id="Shape" fill="#F5A623"></path>
            </g>
        </g>
    </g>
</svg>