<?xml version="1.0" encoding="UTF-8" standalone="no"?>
<svg width="18px" height="20px" viewBox="0 0 18 20" version="1.1" xmlns="http://www.w3.org/2000/svg" xmlns:xlink="http://www.w3.org/1999/xlink">
    <!-- Generator: Sketch 40.1 (33804) - http://www.bohemiancoding.com/sketch -->
    <title>Apple-color</title>
    <desc>Created with Sketch.</desc>
    <defs></defs>
    <g id="Welcome" stroke="none" stroke-width="1" fill="none" fill-rule="evenodd">
        <g id="Desktop" transform="translate(-241.000000, -517.000000)" fill="#F6A623">
            <path d="M252.322806,520.246875 C252.975074,519.404875 253.469535,518.214785 253.290687,517 C252.224616,517.074087 250.978528,517.756154 250.251448,518.645193 C249.58866,519.450738 249.043935,520.649059 249.256682,521.812101 C250.422113,521.848556 251.62495,521.150025 252.322806,520.246875 L252.322806,520.246875 Z M258.083333,531.67385 C257.616927,532.713415 257.392491,533.177926 256.791657,534.098717 C255.953528,535.38406 254.771732,536.984566 253.305883,536.996326 C252.004855,537.010437 251.66937,536.143742 249.903104,536.154326 C248.136839,536.163733 247.768623,537.012789 246.465257,536.999854 C245.000578,536.986918 243.880735,535.542817 243.042607,534.257474 C240.697717,530.666037 240.451071,526.450157 241.897047,524.207568 C242.925713,522.615294 244.548199,521.683919 246.072494,521.683919 C247.623675,521.683919 248.599738,522.540031 249.884401,522.540031 C251.130489,522.540031 251.88913,521.681567 253.68345,521.681567 C255.041756,521.681567 256.480719,522.425961 257.504709,523.710129 C254.147519,525.561118 254.691075,530.383803 258.083333,531.67385 L258.083333,531.67385 Z" id="Apple"></path>
        </g>
    </g>
</svg>