<?xml version="1.0" encoding="UTF-8"?>
<svg width="34px" height="34px" viewBox="0 0 34 34" version="1.1" xmlns="http://www.w3.org/2000/svg" xmlns:xlink="http://www.w3.org/1999/xlink">
    <!-- Generator: Sketch 40.3 (33839) - http://www.bohemiancoding.com/sketch -->
    <title>X</title>
    <desc>Created with Sketch.</desc>
    <defs></defs>
    <g id="Welcome" stroke="none" stroke-width="1" fill="none" fill-rule="evenodd">
        <g id="Desktop" transform="translate(-1193.000000, -67.000000)" stroke="#FFFFFF" stroke-width="2.5" fill="#F6A623">
            <g id="Group" transform="translate(1177.000000, 51.000000)">
                <g id="X" transform="translate(18.000000, 18.000000)">
                    <path d="M15.8909342,14.8919231 L29.6717035,1.11115385 C29.9255496,0.857307692 29.9255496,0.445 29.6717035,0.190384615 C29.4170881,-0.0634615385 29.0047804,-0.0634615385 28.7509342,0.190384615 L14.970165,13.9711538 L1.18939578,0.190384615 C0.935549627,-0.0634615385 0.523241935,-0.0634615385 0.26862655,0.190384615 C0.0147803963,0.445 0.0147803963,0.857307692 0.26862655,1.11115385 L14.0493958,14.8919231 L0.26862655,28.6726923 C0.0147803963,28.9265385 0.0147803963,29.3388462 0.26862655,29.5934615 C0.396318858,29.7203846 0.562472704,29.7842308 0.729395781,29.7842308 C0.895549627,29.7842308 1.0624727,29.7203846 1.18939578,29.5934615 L14.970165,15.8126923 L28.7509342,29.5934615 C28.8778573,29.7203846 29.0447804,29.7842308 29.2109342,29.7842308 C29.3778573,29.7842308 29.5447804,29.7203846 29.6717035,29.5934615 C29.9255496,29.3388462 29.9255496,28.9265385 29.6717035,28.6726923 L15.8909342,14.8919231 Z" id="Fill-1"></path>
                </g>
            </g>
        </g>
    </g>
</svg>