<?xml version="1.0" encoding="UTF-8"?>
<svg width="76px" height="61px" viewBox="0 0 76 61" version="1.1" xmlns="http://www.w3.org/2000/svg" xmlns:xlink="http://www.w3.org/1999/xlink">
    <!-- Generator: Sketch 40.3 (33839) - http://www.bohemiancoding.com/sketch -->
    <title>Crown</title>
    <desc>Created with Sketch.</desc>
    <defs></defs>
    <g id="Welcome" stroke="none" stroke-width="1" fill="none" fill-rule="evenodd">
        <g id="Desktop" transform="translate(-439.000000, -256.000000)" fill="#4990E2">
            <g id="Group" transform="translate(50.000000, 249.000000)">
                <g id="Crown" transform="translate(424.175481, 36.728593) rotate(11.000000) translate(-424.175481, -36.728593) translate(386.023307, 6.728593)">
                    <path d="M66.3030387,46.5085236 C64.6640323,45.4014583 62.2575391,44.4435719 59.0874849,43.6387903 C53.434385,42.2039236 45.9459906,41.4148451 38.0002446,41.4148451 C30.0564616,41.4148451 22.5680672,42.2039236 16.9149673,43.6387903 C13.7449131,44.4435719 11.3384199,45.4014583 9.69941347,46.5085236 L4.11501448,16.7708629 L19.7847007,29.1919796 C20.1497967,29.4824861 20.6208883,29.6041848 21.0802027,29.5295952 C21.54148,29.4550057 21.9497594,29.1900167 22.204934,28.8013661 L38.0002446,4.69325061 L53.7975181,28.8013661 C54.0526928,29.1900167 54.4609722,29.4550057 54.9222495,29.5295952 C55.3815638,29.6041848 55.8526555,29.4824861 56.2177515,29.1919796 L71.8874377,16.7708629 L66.3030387,46.5085236 Z M58.270926,54.1323569 C52.8769265,55.5004856 45.6790386,56.2542323 38.0002446,56.2542323 C30.3234136,56.2542323 23.1255256,55.5004856 17.7315262,54.1323569 C11.7624023,52.6170121 10.4197911,50.9583769 10.4197911,50.4951368 C10.4197911,50.0338595 11.7624023,48.3732614 17.7315262,46.8579166 C23.1255256,45.4897879 30.3234136,44.7360413 38.0002446,44.7360413 C45.6790386,44.7360413 52.8769265,45.4897879 58.270926,46.8579166 C64.2400498,48.3732614 65.582661,50.0338595 65.582661,50.4951368 C65.582661,50.9583769 64.2400498,52.6170121 58.270926,54.1323569 L58.270926,54.1323569 Z M75.1988195,11.2826451 C74.6060291,10.9234378 73.8522825,10.9725098 73.3085642,11.4023809 L55.5798149,25.4585782 L39.389965,0.749820884 C39.0837555,0.282654993 38.5616289,4.63397436e-14 38.0002446,4.63397436e-14 C37.4408233,4.63397436e-14 36.9186967,0.282654993 36.6124871,0.749820884 L20.4226373,25.4585782 L2.69388799,11.4023809 C2.1501697,10.9725098 1.39642305,10.9234378 0.803632721,11.2826451 C0.208879506,11.6418525 -0.0992929512,12.3308241 0.028294372,13.0119441 L7.10252072,50.6855363 C7.2458111,53.4944203 10.5434527,55.7360314 16.9149673,57.3514832 C22.5680672,58.7863499 30.0564616,59.5773913 38.0002446,59.5773913 C45.9459906,59.5773913 53.434385,58.7863499 59.0874849,57.3514832 C65.4589995,55.7360314 68.7566411,53.4944203 68.8999315,50.6855363 L75.9741578,13.0119441 C76.1017451,12.3308241 75.7916098,11.6418525 75.1988195,11.2826451 L75.1988195,11.2826451 Z" id="Fill-1"></path>
                </g>
            </g>
        </g>
    </g>
</svg>