<?xml version="1.0" encoding="UTF-8" standalone="no"?>
<svg width="39px" height="39px" viewBox="0 0 39 39" version="1.1" xmlns="http://www.w3.org/2000/svg" xmlns:xlink="http://www.w3.org/1999/xlink">
    <!-- Generator: Sketch 40.2 (33826) - http://www.bohemiancoding.com/sketch -->
    <title>Combined Shape-color</title>
    <desc>Created with Sketch.</desc>
    <defs></defs>
    <g id="Welcome" stroke="none" stroke-width="1" fill="none" fill-rule="evenodd">
        <g id="Desktop" transform="translate(-919.000000, -301.000000)" fill="#FFFFFF">
            <g id="Group-4" transform="translate(896.000000, 298.000000)">
                <g id="Group-3">
                    <path d="M23.0362234,42 C23.0124264,41.8686878 23,41.7334188 23,41.5952511 L23,23.42492 L23,42 L23.0362234,42 Z M43.4250785,3 L61.5955507,3 C61.7336171,3 61.8687852,3.01240984 62,3.03617544 L62,3 L43.4250785,3 Z M51.1859077,42 L51.1859077,28.0306278 L56.4957402,28.0306278 L57.2908123,21.8655383 L51.1859077,21.8655383 L51.1859077,17.9295182 C51.1859077,16.1445826 51.6815597,14.9282078 54.2411339,14.9282078 L57.505748,14.9267812 L57.505748,9.41267578 C56.9411454,9.33754395 55.0032365,9.16968613 52.7486301,9.16968613 C48.041759,9.16968613 44.8193078,12.0427652 44.8193078,17.3189532 L44.8193078,21.8655383 L39.4958437,21.8655383 L39.4958437,28.0306278 L44.8193078,28.0306278 L44.8193078,42 L51.1859077,42 Z" id="Combined-Shape"></path>
                </g>
            </g>
        </g>
    </g>
</svg>