<?xml version="1.0" encoding="UTF-8"?>
<svg width="34px" height="33px" viewBox="0 0 34 33" version="1.1" xmlns="http://www.w3.org/2000/svg" xmlns:xlink="http://www.w3.org/1999/xlink">
    <!-- Generator: Sketch 42 (36781) - http://www.bohemiancoding.com/sketch -->
    <title>Fill 3</title>
    <desc>Created with Sketch.</desc>
    <defs></defs>
    <g id="Welcome" stroke="none" stroke-width="1" fill="none" fill-rule="evenodd">
        <g id="Contacts-#1" transform="translate(-87.000000, -738.000000)" stroke="#4A4A4A" stroke-width="0.5" fill="#000000">
            <path d="M103.998527,739 C95.1643697,739 88,746.115152 88,754.89275 C88,761.914242 92.5840572,767.870365 98.9420179,769.971837 C99.7425335,770.118179 100.034255,769.627445 100.034255,769.20598 C100.034255,768.829393 100.020504,767.829389 100.012646,766.50353 C95.562172,767.463534 94.6231622,764.372789 94.6231622,764.372789 C93.8953313,762.536684 92.846312,762.047901 92.846312,762.047901 C91.3935971,761.062532 92.9563216,761.082044 92.9563216,761.082044 C94.562264,761.194239 95.40698,762.720099 95.40698,762.720099 C96.834157,765.148402 99.1522146,764.446936 100.063722,764.040105 C100.209092,763.013759 100.62261,762.313268 101.079346,761.916194 C97.5266276,761.515216 93.7912152,760.151308 93.7912152,754.061527 C93.7912152,752.326885 94.4149299,750.907367 95.4384112,749.797118 C95.273397,749.395166 94.7243316,747.778573 95.5955677,745.591247 C95.5955677,745.591247 96.9382731,745.163928 99.9949661,747.220522 C101.27088,746.86735 102.640106,746.69174 104.000491,746.68491 C105.359894,746.69174 106.728138,746.86735 108.006016,747.220522 C111.060745,745.163928 112.401486,745.591247 112.401486,745.591247 C113.274686,747.778573 112.725621,749.395166 112.561589,749.797118 C113.587035,750.907367 114.205838,752.326885 114.205838,754.061527 C114.205838,760.166918 110.464532,761.510338 106.90101,761.903511 C107.474631,762.394244 107.986372,763.364005 107.986372,764.846938 C107.986372,766.970849 107.966727,768.685002 107.966727,769.20598 C107.966727,769.631348 108.255502,770.125984 109.066822,769.970862 C115.419872,767.864511 120,761.912291 120,754.89275 C120,746.115152 112.83563,739 103.998527,739" id="Fill-3"></path>
        </g>
    </g>
</svg>