<?xml version="1.0" encoding="UTF-8" standalone="no"?>
<svg width="41px" height="40px" viewBox="0 0 41 40" version="1.1" xmlns="http://www.w3.org/2000/svg" xmlns:xlink="http://www.w3.org/1999/xlink">
    <!-- Generator: Sketch 40.2 (33826) - http://www.bohemiancoding.com/sketch -->
    <title>Github-color</title>
    <desc>Created with Sketch.</desc>
    <defs></defs>
    <g id="Welcome" stroke="none" stroke-width="1" fill="none" fill-rule="evenodd">
        <g id="Desktop" transform="translate(-1143.000000, -302.000000)" fill="#FFFFFF">
            <g id="Group-4" transform="translate(896.000000, 298.000000)">
                <g id="Github" transform="translate(220.000000, 0.000000)">
                    <path d="M47.4242553,4 C36.1455319,4 27,13.1805039 27,24.5077821 C27,33.5665287 32.8519149,41.2526214 40.9697872,43.964606 C41.9910638,44.1530095 42.3638298,43.5198713 42.3638298,42.9764491 C42.3638298,42.4894197 42.3459574,41.2000735 42.3357447,39.4890623 C36.653617,40.7284239 35.4548936,36.7399096 35.4548936,36.7399096 C34.5268085,34.3714088 33.1876596,33.7408339 33.1876596,33.7408339 C31.332766,32.4681492 33.3280851,32.4937824 33.3280851,32.4937824 C35.3770213,32.6386095 36.4557447,34.6072336 36.4557447,34.6072336 C38.2787234,37.7408832 41.2365957,36.8360338 42.4008511,36.3105548 C42.5859574,34.9853222 43.1144681,34.0817545 43.6978723,33.569092 C39.1621277,33.0513028 34.3940426,31.2928704 34.3940426,23.4350358 C34.3940426,21.1959823 35.1893617,19.3657771 36.4965957,17.9316037 C36.2859574,17.4125329 35.5851064,15.3285598 36.6957447,12.5050711 C36.6957447,12.5050711 38.4114894,11.9539589 42.312766,14.6069874 C43.9429787,14.1519994 45.6893617,13.9251462 47.4268085,13.9161746 C49.1617021,13.9251462 50.9093617,14.1519994 52.5408511,14.6069874 C56.4395745,11.9539589 58.1514894,12.5050711 58.1514894,12.5050711 C59.2659574,15.3285598 58.5651064,17.4125329 58.3544681,17.9316037 C59.6642553,19.3657771 60.4544681,21.1959823 60.4544681,23.4350358 C60.4544681,31.3120953 55.6787234,33.0461762 51.1289362,33.5537121 C51.8617021,34.1868503 52.5153191,35.4377468 52.5153191,37.3512597 C52.5153191,40.0927224 52.4897872,42.3035795 52.4897872,42.9764491 C52.4897872,43.5249979 52.8574468,44.1632628 53.8940426,43.9620427 C62.0042553,41.2449314 67.8510638,33.5639654 67.8510638,24.5077821 C67.8510638,13.1805039 58.7055319,4 47.4242553,4"></path>
                </g>
            </g>
        </g>
    </g>
</svg>