<?xml version="1.0" encoding="UTF-8"?>
<svg width="34px" height="34px" viewBox="0 0 34 34" version="1.1" xmlns="http://www.w3.org/2000/svg" xmlns:xlink="http://www.w3.org/1999/xlink">
    <!-- Generator: Sketch 42 (36781) - http://www.bohemiancoding.com/sketch -->
    <title>In-Black-2in-TM</title>
    <desc>Created with Sketch.</desc>
    <defs></defs>
    <g id="Welcome" stroke="none" stroke-width="1" fill="none" fill-rule="evenodd">
        <g id="Contacts-#1" transform="translate(-135.000000, -737.000000)" stroke-width="0.5" stroke="#4A4A4A" fill="#000000">
            <g id="In-Black-2in-TM" transform="translate(136.000000, 738.000000)">
                <g id="Group-3">
                    <path d="M27.195922,27.1957004 L22.4654255,27.1957004 L22.4654255,19.7887855 C22.4654255,18.0226064 22.4330674,15.7506649 20.0055408,15.7506649 C17.5425532,15.7506649 17.1644504,17.6746454 17.1644504,19.6611259 L17.1644504,27.1957004 L12.4348404,27.1957004 L12.4348404,11.9647606 L16.9749557,11.9647606 L16.9749557,14.0458777 L17.0383422,14.0458777 C17.6704344,12.8486259 19.214539,11.5862145 21.5175089,11.5862145 C26.3109486,11.5862145 27.195922,14.7409131 27.195922,18.8415337 L27.195922,27.1957004 L27.195922,27.1957004 Z M7.09973404,9.88275709 C5.58244681,9.88275709 4.35460993,8.65292553 4.35460993,7.13763298 C4.35460993,5.62367021 5.58244681,4.39383865 7.09973404,4.39383865 C8.61325355,4.39383865 9.84308511,5.62367021 9.84308511,7.13763298 C9.84308511,8.65292553 8.61325355,9.88275709 7.09973404,9.88275709 L7.09973404,9.88275709 Z M4.73182624,27.1957004 L9.46586879,27.1957004 L9.46586879,11.9647606 L4.73182624,11.9647606 L4.73182624,27.1957004 Z M29.5534131,0 L2.35571809,0 C1.0560727,0 0,1.03014184 0,2.29964539 L0,29.6121454 C0,30.8832004 1.0560727,31.9148936 2.35571809,31.9148936 L29.5534131,31.9148936 C30.8552748,31.9148936 31.9157801,30.8832004 31.9157801,29.6121454 L31.9157801,2.29964539 C31.9157801,1.03014184 30.8552748,0 29.5534131,0 L29.5534131,0 Z" id="Fill-1"></path>
                </g>
            </g>
        </g>
    </g>
</svg>