<?xml version="1.0" encoding="UTF-8"?>
<svg width="26px" height="32px" viewBox="0 0 26 32" version="1.1" xmlns="http://www.w3.org/2000/svg" xmlns:xlink="http://www.w3.org/1999/xlink">
    <!-- Generator: Sketch 42 (36781) - http://www.bohemiancoding.com/sketch -->
    <title>Document</title>
    <desc>Created with Sketch.</desc>
    <defs></defs>
    <g id="Welcome" stroke="none" stroke-width="1" fill="none" fill-rule="evenodd">
        <g id="Contacts-#1" transform="translate(-219.000000, -736.000000)" fill="#000000">
            <g id="Document" transform="translate(219.000000, 736.000000)">
                <path d="M23.0469923,30.3969129 L2.84151947,30.3969129 C2.02006783,30.3969129 1.35283815,29.7177558 1.35283815,28.8834323 L1.35283815,3.20544301 C1.35283815,2.37111957 2.02006783,1.69196243 2.84151947,1.69196243 L15.3247076,1.69196243 L15.3247076,7.00417365 C15.3247076,9.2390556 17.1122439,11.0563696 19.310506,11.0563696 L24.5356736,11.0563696 L24.5356736,28.8834323 C24.5356736,29.7177558 23.8676448,30.3969129 23.0469923,30.3969129 L23.0469923,30.3969129 Z M23.5791779,9.68180757 L19.310506,9.68180757 C17.8585823,9.68180757 16.6767467,8.48028434 16.6767467,7.00417365 L16.6767467,2.66439198 L23.5791779,9.68180757 Z M25.8869136,10.3455293 C25.8869136,10.3382178 25.8861145,10.3300939 25.8861145,10.3227824 C25.8837173,10.2935364 25.880521,10.2642904 25.8757265,10.2358568 C25.8749274,10.2358568 25.8749274,10.2350444 25.8749274,10.2350444 C25.8693339,10.2057984 25.8613431,10.1773648 25.8517542,10.1497436 C25.8493569,10.1424321 25.8469597,10.1351206 25.8445625,10.1278091 C25.8349735,10.1018126 25.8237865,10.0758162 25.8110012,10.0514445 C25.8102021,10.0498198 25.8094031,10.0473826 25.808604,10.0457578 C25.7950197,10.0197614 25.7790381,9.9945773 25.7622575,9.97101802 C25.7582621,9.96451891 25.7534676,9.9580198 25.7486732,9.95152069 C25.7302944,9.92796141 25.7111165,9.90440213 25.6903405,9.88246763 L16.4793746,0.518060421 C16.4577995,0.49612592 16.4346262,0.477440975 16.4106539,0.458756029 C16.4050604,0.453881696 16.3986678,0.449819751 16.3930742,0.444945418 C16.3691019,0.42788525 16.3443305,0.411637471 16.31876,0.39782686 C16.3171619,0.397014471 16.3155637,0.396202082 16.3147646,0.395389693 C16.2899932,0.38239147 16.2636237,0.371018025 16.2380532,0.361269358 C16.2308615,0.358832191 16.2244689,0.356395024 16.2172772,0.353957857 C16.1621408,0.334460523 16.1046072,0.323087078 16.0462746,0.319025133 C16.0382838,0.319025133 16.0310921,0.318212744 16.0239004,0.318212744 C16.0159096,0.317400355 16.0087179,0.316587966 16.0007272,0.316587966 L2.84151947,0.316587966 C1.27452856,0.316587966 0,1.61234831 0,3.20544301 L0,28.8834323 C0,30.476527 1.27452856,31.7722874 2.84151947,31.7722874 L23.0469923,31.7722874 C24.6139832,31.7722874 25.8885117,30.476527 25.8885117,28.8834323 L25.8885117,10.3690886 C25.8885117,10.3609647 25.8877127,10.3536532 25.8869136,10.3455293 L25.8869136,10.3455293 Z" id="Fill-1"></path>
                <path d="M18.3650376,13.0908352 L6.99895971,13.0908352 C6.62579053,13.0908352 6.32294017,13.3987306 6.32294017,13.7781163 C6.32294017,14.1583143 6.62579053,14.4662097 6.99895971,14.4662097 L18.3650376,14.4662097 C18.7382068,14.4662097 19.0410571,14.1583143 19.0410571,13.7781163 C19.0410571,13.3987306 18.7382068,13.0908352 18.3650376,13.0908352" id="Fill-4" stroke="#4A4A4A" stroke-width="0.5"></path>
                <path d="M18.3650376,17.6228281 L6.99895971,17.6228281 C6.62579053,17.6228281 6.32294017,17.9307235 6.32294017,18.3101092 C6.32294017,18.6903072 6.62579053,18.9982026 6.99895971,18.9982026 L18.3650376,18.9982026 C18.7382068,18.9982026 19.0410571,18.6903072 19.0410571,18.3101092 C19.0410571,17.9307235 18.7382068,17.6228281 18.3650376,17.6228281" id="Fill-6" stroke="#4A4A4A" stroke-width="0.5"></path>
            </g>
        </g>
    </g>
</svg>