<?xml version="1.0" encoding="UTF-8"?>
<svg width="21px" height="20px" viewBox="0 0 21 20" version="1.1" xmlns="http://www.w3.org/2000/svg" xmlns:xlink="http://www.w3.org/1999/xlink">
    <!-- Generator: Sketch 40.3 (33839) - http://www.bohemiancoding.com/sketch -->
    <title>Group</title>
    <desc>Created with Sketch.</desc>
    <defs></defs>
    <g id="Welcome" stroke="none" stroke-width="1" fill="none" fill-rule="evenodd">
        <g id="Desktop" transform="translate(-777.000000, -517.000000)" fill="#F6A623">
            <g id="Group" transform="translate(777.000000, 517.000000)">
                <g id="Caret-Right" transform="translate(10.000000, 0.000000)">
                    <path d="M0.434,19.856 C0.322717949,19.856 0.211948718,19.8134359 0.127333333,19.7288205 C-0.0424102564,19.5595897 -0.0424102564,19.2847179 0.127333333,19.1149744 L9.41605128,9.82625641 L0.330410256,0.741128205 C0.161179487,0.571384615 0.161179487,0.296512821 0.330410256,0.127282051 C0.500153846,-0.0424615385 0.775025641,-0.0424615385 0.94425641,0.127282051 L10.3365641,9.51958974 C10.5063077,9.68882051 10.5063077,9.96369231 10.3365641,10.1329231 L0.740666667,19.7288205 C0.656051282,19.8134359 0.545282051,19.856 0.434,19.856" id="Fill-1"></path>
                </g>
                <g id="Caret-Right">
                    <path d="M0.434,19.856 C0.322717949,19.856 0.211948718,19.8134359 0.127333333,19.7288205 C-0.0424102564,19.5595897 -0.0424102564,19.2847179 0.127333333,19.1149744 L9.41605128,9.82625641 L0.330410256,0.741128205 C0.161179487,0.571384615 0.161179487,0.296512821 0.330410256,0.127282051 C0.500153846,-0.0424615385 0.775025641,-0.0424615385 0.94425641,0.127282051 L10.3365641,9.51958974 C10.5063077,9.68882051 10.5063077,9.96369231 10.3365641,10.1329231 L0.740666667,19.7288205 C0.656051282,19.8134359 0.545282051,19.856 0.434,19.856" id="Fill-1"></path>
                </g>
            </g>
        </g>
    </g>
</svg>