<?xml version="1.0" encoding="UTF-8" standalone="no"?>
<svg width="41px" height="35px" viewBox="0 0 41 35" version="1.1" xmlns="http://www.w3.org/2000/svg" xmlns:xlink="http://www.w3.org/1999/xlink">
    <!-- Generator: Sketch 40.2 (33826) - http://www.bohemiancoding.com/sketch -->
    <title>Twitter-color</title>
    <desc>Created with Sketch.</desc>
    <defs></defs>
    <g id="Welcome" stroke="none" stroke-width="1" fill="none" fill-rule="evenodd">
        <g id="Desktop" transform="translate(-1033.000000, -306.000000)" fill="#FFFFFF">
            <g id="Group-4" transform="translate(896.000000, 298.000000)">
                <g id="Twitter" transform="translate(110.000000, 0.000000)">
                    <path d="M63.0377694,13.3822467 C64.768925,12.3200582 66.0972633,10.635801 66.7230689,8.62944502 C65.1022085,9.61295287 63.3111098,10.3284548 61.3977272,10.7120229 C59.8727757,9.04251832 57.6932459,8 55.2811371,8 C50.6559303,8 46.9034946,11.8479745 46.9034946,16.5933998 C46.9034946,17.2671027 46.9754263,17.9211354 47.1192896,18.5505804 C40.1539057,18.1916001 33.9797702,14.7739103 29.8436989,9.56869502 C29.1219844,10.8423377 28.7095762,12.3200582 28.7095762,13.8936708 C28.7095762,16.8736996 30.1889709,19.5045831 32.4380347,21.0462316 C31.0665374,21.0044325 29.7717672,20.6134882 28.6400422,19.9742081 L28.6400422,20.0799351 C28.6400422,24.2450909 31.5292978,27.7193324 35.3656539,28.5061386 C34.6631212,28.7077577 33.9222249,28.8085673 33.1573514,28.8085673 C32.6178639,28.8085673 32.0903649,28.7569331 31.57965,28.6561236 C32.6466365,32.0688958 35.7396986,34.5547119 39.408214,34.6210987 C36.5405379,36.9274246 32.9247723,38.3018768 28.9997006,38.3018768 C28.3235428,38.3018768 27.6545782,38.2625365 27,38.1838559 C30.7092767,40.6180378 35.1162907,42.0416654 39.8469972,42.0416654 C55.264353,42.0416654 63.6923476,28.9487172 63.6923476,17.5916603 C63.6923476,17.2179273 63.6851545,16.8441943 63.6707681,16.4778377 C65.3084126,15.2656642 66.7302621,13.7535209 67.8499985,12.0299234 C66.3490242,12.7134614 64.7329592,13.1757101 63.0377694,13.3822467 Z"></path>
                </g>
            </g>
        </g>
    </g>
</svg>